<?xml version="1.0" encoding="UTF-8" standalone="no"?>
<!DOCTYPE svg PUBLIC "-//W3C//DTD SVG 1.1//EN"
 "http://www.w3.org/Graphics/SVG/1.1/DTD/svg11.dtd">
<!-- Generated by graphviz version 2.38.0 (20140413.2041)
 -->
<!-- Title: gProject Pages: 1 -->
<svg width="843pt" height="697pt"
 viewBox="0.00 0.00 843.00 697.00" xmlns="http://www.w3.org/2000/svg" xmlns:xlink="http://www.w3.org/1999/xlink">
<g id="graph0" class="graph" transform="scale(1 1) rotate(0) translate(4 693)">
<title>gProject</title>
<polygon fill="white" stroke="none" points="-4,4 -4,-693 839,-693 839,4 -4,4"/>
<text text-anchor="middle" x="112" y="-673.8" font-family="Times New Roman,serif" font-size="14.00">Project RACK&#45;Ontology import map</text>
<!-- n1 -->
<g id="node1" class="node"><title>n1</title>
<g id="a_node1"><a xlink:href="file:./SYSTEM.owl.svg" xlink:title="http://arcos.rack/SYSTEM">
<polygon fill="none" stroke="black" points="427,-492 373,-492 373,-456 427,-456 427,-492"/>
<text text-anchor="middle" x="400" y="-470.3" font-family="Times New Roman,serif" font-size="14.00">sys</text>
</a>
</g>
</g>
<!-- n2 -->
<g id="node2" class="node"><title>n2</title>
<g id="a_node2"><a xlink:href="file:./CounterApplication.owl.svg" xlink:title="http://TurnstileSystem/CounterApplication">
<polygon fill="none" stroke="black" points="675.5,-297 612.5,-297 612.5,-261 675.5,-261 675.5,-297"/>
<text text-anchor="middle" x="644" y="-275.3" font-family="Times New Roman,serif" font-size="14.00">trnstlsys</text>
</a>
</g>
</g>
<!-- n1&#45;&gt;n2 -->
<g id="edge1" class="edge"><title>n1&#45;&gt;n2</title>
<path fill="none" stroke="black" d="M427.376,-463.753C475.865,-445.919 576.651,-402.046 629,-330 633.944,-323.195 637.275,-314.752 639.513,-306.754"/>
<polygon fill="black" stroke="black" points="642.92,-307.552 641.801,-297.017 636.106,-305.951 642.92,-307.552"/>
<text text-anchor="middle" x="648.5" y="-362.3" font-family="Times New Roman,serif" font-size="14.00">imported by</text>
</g>
<!-- n3 -->
<g id="node3" class="node"><title>n3</title>
<g id="a_node3"><a xlink:href="file:./Turnstiles.owl.svg" xlink:title="http://TurnstileSystem/TurnStiles">
<polygon fill="none" stroke="black" points="427,-384 373,-384 373,-348 427,-348 427,-384"/>
<text text-anchor="middle" x="400" y="-362.3" font-family="Times New Roman,serif" font-size="14.00">trnstl</text>
</a>
</g>
</g>
<!-- n1&#45;&gt;n3 -->
<g id="edge15" class="edge"><title>n1&#45;&gt;n3</title>
<path fill="none" stroke="black" d="M400,-455.969C400,-439.378 400,-413.883 400,-394.431"/>
<polygon fill="black" stroke="black" points="403.5,-394.341 400,-384.341 396.5,-394.341 403.5,-394.341"/>
<text text-anchor="middle" x="434.5" y="-416.3" font-family="Times New Roman,serif" font-size="14.00">imported by</text>
</g>
<!-- n23 -->
<g id="node23" class="node"><title>n23</title>
<g id="a_node23"><a xlink:href="file:./CounterApplicationLLR.owl.svg" xlink:title="http://TurnstileSystem/CounterApplicationLLR">
<polygon fill="none" stroke="black" points="267,-123 197,-123 197,-87 267,-87 267,-123"/>
<text text-anchor="middle" x="232" y="-101.3" font-family="Times New Roman,serif" font-size="14.00">cntrappllr</text>
</a>
</g>
</g>
<!-- n2&#45;&gt;n23 -->
<g id="edge29" class="edge"><title>n2&#45;&gt;n23</title>
<path fill="none" stroke="black" d="M623.589,-260.736C595.476,-237.784 542.455,-197.404 491,-174 419.788,-141.609 330.282,-122.419 277.305,-113.071"/>
<polygon fill="black" stroke="black" points="277.662,-109.581 267.213,-111.332 276.473,-116.48 277.662,-109.581"/>
<text text-anchor="middle" x="589.5" y="-188.3" font-family="Times New Roman,serif" font-size="14.00">imported by</text>
</g>
<!-- n3&#45;&gt;n2 -->
<g id="edge2" class="edge"><title>n3&#45;&gt;n2</title>
<path fill="none" stroke="black" d="M427.122,-360.78C455.4,-355.765 500.591,-345.998 537,-330 548.173,-325.09 549.211,-320.704 560,-315 573.618,-307.8 589.047,-301.008 602.933,-295.357"/>
<polygon fill="black" stroke="black" points="604.267,-298.593 612.258,-291.636 601.673,-292.091 604.267,-298.593"/>
<text text-anchor="middle" x="594.5" y="-318.8" font-family="Times New Roman,serif" font-size="14.00">imported by</text>
</g>
<!-- n7 -->
<g id="node7" class="node"><title>n7</title>
<g id="a_node7"><a xlink:href="file:./InGateRequirements.owl.svg" xlink:title="http://TurnstileSystem/InGateRequirement">
<polygon fill="none" stroke="black" points="482.5,-210 421.5,-210 421.5,-174 482.5,-174 482.5,-210"/>
<text text-anchor="middle" x="452" y="-188.3" font-family="Times New Roman,serif" font-size="14.00">ingaterq</text>
</a>
</g>
</g>
<!-- n3&#45;&gt;n7 -->
<g id="edge5" class="edge"><title>n3&#45;&gt;n7</title>
<path fill="none" stroke="black" d="M427.095,-350.363C436.903,-344.558 447.817,-337.482 457,-330 494.42,-299.513 508.617,-289.374 522,-243 523.849,-236.595 525.505,-233.671 522,-228 515.18,-216.965 503.71,-209.293 492.008,-204.01"/>
<polygon fill="black" stroke="black" points="493.242,-200.734 482.657,-200.267 490.64,-207.232 493.242,-200.734"/>
<text text-anchor="middle" x="550.5" y="-275.3" font-family="Times New Roman,serif" font-size="14.00">imported by</text>
</g>
<!-- n8 -->
<g id="node8" class="node"><title>n8</title>
<g id="a_node8"><a xlink:href="file:./HazardAssesment.owl.svg" xlink:title="http://TurnstileSystem/HazardAssesment">
<polygon fill="none" stroke="black" points="389,-297 335,-297 335,-261 389,-261 389,-297"/>
<text text-anchor="middle" x="362" y="-275.3" font-family="Times New Roman,serif" font-size="14.00">ha</text>
</a>
</g>
</g>
<!-- n3&#45;&gt;n8 -->
<g id="edge7" class="edge"><title>n3&#45;&gt;n8</title>
<path fill="none" stroke="black" d="M392.31,-347.799C387.005,-335.932 379.85,-319.928 373.824,-306.449"/>
<polygon fill="black" stroke="black" points="376.955,-304.876 369.678,-297.175 370.565,-307.733 376.955,-304.876"/>
<text text-anchor="middle" x="418.5" y="-318.8" font-family="Times New Roman,serif" font-size="14.00">imported by</text>
</g>
<!-- n19 -->
<g id="node19" class="node"><title>n19</title>
<g id="a_node19"><a xlink:href="file:./CounterApplicationRequirements.owl.svg" xlink:title="http://TurnstileSystem/CounterApplicationRequirements">
<polygon fill="none" stroke="black" points="267.5,-210 196.5,-210 196.5,-174 267.5,-174 267.5,-210"/>
<text text-anchor="middle" x="232" y="-188.3" font-family="Times New Roman,serif" font-size="14.00">cntrapprq</text>
</a>
</g>
</g>
<!-- n3&#45;&gt;n19 -->
<g id="edge21" class="edge"><title>n3&#45;&gt;n19</title>
<path fill="none" stroke="black" d="M372.821,-350.425C371.195,-349.595 369.579,-348.781 368,-348 319.34,-323.921 291.475,-338.941 257,-297 239.186,-275.328 233.69,-243.016 232.179,-220.169"/>
<polygon fill="black" stroke="black" points="235.672,-219.94 231.727,-210.107 228.679,-220.254 235.672,-219.94"/>
<text text-anchor="middle" x="291.5" y="-275.3" font-family="Times New Roman,serif" font-size="14.00">imported by</text>
</g>
<!-- n4 -->
<g id="node4" class="node"><title>n4</title>
<g id="a_node4"><a xlink:href="file:./PROV-S.owl.svg" xlink:title="http://arcos.rack/PROV&#45;S">
<polygon fill="none" stroke="black" points="471,-579 417,-579 417,-543 471,-543 471,-579"/>
<text text-anchor="middle" x="444" y="-557.3" font-family="Times New Roman,serif" font-size="14.00">provs</text>
</a>
</g>
</g>
<!-- n4&#45;&gt;n1 -->
<g id="edge12" class="edge"><title>n4&#45;&gt;n1</title>
<path fill="none" stroke="black" d="M416.711,-545.03C409.637,-539.703 402.914,-533.002 399,-525 395.591,-518.029 394.684,-509.832 394.948,-502.113"/>
<polygon fill="black" stroke="black" points="398.442,-502.333 395.908,-492.045 391.474,-501.668 398.442,-502.333"/>
<text text-anchor="middle" x="433.5" y="-513.8" font-family="Times New Roman,serif" font-size="14.00">imported by</text>
</g>
<!-- n5 -->
<g id="node5" class="node"><title>n5</title>
<g id="a_node5"><a xlink:href="file:./HAZARD.owl.svg" xlink:title="http://arcos.rack/HAZARD">
<polygon fill="none" stroke="black" points="363,-438 309,-438 309,-402 363,-402 363,-438"/>
<text text-anchor="middle" x="336" y="-416.3" font-family="Times New Roman,serif" font-size="14.00">H</text>
</a>
</g>
</g>
<!-- n4&#45;&gt;n5 -->
<g id="edge3" class="edge"><title>n4&#45;&gt;n5</title>
<path fill="none" stroke="black" d="M416.961,-560.803C388.414,-560.007 344.616,-553.754 323,-525 306.332,-502.828 314.125,-470.184 323.157,-447.402"/>
<polygon fill="black" stroke="black" points="326.462,-448.573 327.172,-438.002 320.025,-445.823 326.462,-448.573"/>
<text text-anchor="middle" x="357.5" y="-513.8" font-family="Times New Roman,serif" font-size="14.00">imported by</text>
</g>
<!-- n10 -->
<g id="node10" class="node"><title>n10</title>
<g id="a_node10"><a xlink:href="file:./SACM-S.owl.svg" xlink:title="http://arcos.rack/SACM&#45;S">
<polygon fill="none" stroke="black" points="517,-492 463,-492 463,-456 517,-456 517,-492"/>
<text text-anchor="middle" x="490" y="-470.3" font-family="Times New Roman,serif" font-size="14.00">sacms</text>
</a>
</g>
</g>
<!-- n4&#45;&gt;n10 -->
<g id="edge10" class="edge"><title>n4&#45;&gt;n10</title>
<path fill="none" stroke="black" d="M456.623,-542.962C460.502,-537.378 464.632,-531.052 468,-525 472.15,-517.542 476.102,-509.148 479.481,-501.398"/>
<polygon fill="black" stroke="black" points="482.764,-502.619 483.427,-492.044 476.315,-499.897 482.764,-502.619"/>
<text text-anchor="middle" x="510.5" y="-513.8" font-family="Times New Roman,serif" font-size="14.00">imported by</text>
</g>
<!-- n12 -->
<g id="node12" class="node"><title>n12</title>
<g id="a_node12"><a xlink:href="file:./ANALYSIS.owl.svg" xlink:title="http://arcos.rack/ANALYSIS">
<polygon fill="none" stroke="black" points="609,-492 555,-492 555,-456 609,-456 609,-492"/>
<text text-anchor="middle" x="582" y="-470.3" font-family="Times New Roman,serif" font-size="14.00">A</text>
</a>
</g>
</g>
<!-- n4&#45;&gt;n12 -->
<g id="edge11" class="edge"><title>n4&#45;&gt;n12</title>
<path fill="none" stroke="black" d="M471.338,-555.993C494.016,-551.548 526.135,-542.548 549,-525 557.119,-518.769 563.873,-509.94 569.111,-501.431"/>
<polygon fill="black" stroke="black" points="572.308,-502.888 574.192,-492.462 566.217,-499.437 572.308,-502.888"/>
<text text-anchor="middle" x="597.5" y="-513.8" font-family="Times New Roman,serif" font-size="14.00">imported by</text>
</g>
<!-- n13 -->
<g id="node13" class="node"><title>n13</title>
<g id="a_node13"><a xlink:href="file:./TESTING.owl.svg" xlink:title="http://arcos.rack/TESTING">
<polygon fill="none" stroke="black" points="59,-438 5,-438 5,-402 59,-402 59,-438"/>
<text text-anchor="middle" x="32" y="-416.3" font-family="Times New Roman,serif" font-size="14.00">tst</text>
</a>
</g>
</g>
<!-- n4&#45;&gt;n13 -->
<g id="edge13" class="edge"><title>n4&#45;&gt;n13</title>
<path fill="none" stroke="black" d="M416.971,-559.252C351.025,-557.063 183.654,-549.217 134,-525 97.6032,-507.249 66.8328,-471.017 48.8894,-446.367"/>
<polygon fill="black" stroke="black" points="51.7263,-444.317 43.0894,-438.181 46.0145,-448.364 51.7263,-444.317"/>
<text text-anchor="middle" x="168.5" y="-513.8" font-family="Times New Roman,serif" font-size="14.00">imported by</text>
</g>
<!-- n14 -->
<g id="node14" class="node"><title>n14</title>
<g id="a_node14"><a xlink:href="file:./REQUIREMENTS.owl.svg" xlink:title="http://arcos.rack/REQUIREMENTS">
<polygon fill="none" stroke="black" points="231,-492 177,-492 177,-456 231,-456 231,-492"/>
<text text-anchor="middle" x="204" y="-470.3" font-family="Times New Roman,serif" font-size="14.00">Rq</text>
</a>
</g>
</g>
<!-- n4&#45;&gt;n14 -->
<g id="edge18" class="edge"><title>n4&#45;&gt;n14</title>
<path fill="none" stroke="black" d="M416.898,-559.575C362.717,-558.15 243.759,-551.951 215,-525 208.729,-519.124 205.626,-510.554 204.193,-502.163"/>
<polygon fill="black" stroke="black" points="207.674,-501.801 203.171,-492.211 200.71,-502.516 207.674,-501.801"/>
<text text-anchor="middle" x="249.5" y="-513.8" font-family="Times New Roman,serif" font-size="14.00">imported by</text>
</g>
<!-- n16 -->
<g id="node16" class="node"><title>n16</title>
<g id="a_node16"><a xlink:href="file:./REVIEW.owl.svg" xlink:title="http://arcos.rack/REVIEW">
<polygon fill="none" stroke="black" points="701,-492 647,-492 647,-456 701,-456 701,-492"/>
<text text-anchor="middle" x="674" y="-470.3" font-family="Times New Roman,serif" font-size="14.00">Rv</text>
</a>
</g>
</g>
<!-- n4&#45;&gt;n16 -->
<g id="edge16" class="edge"><title>n4&#45;&gt;n16</title>
<path fill="none" stroke="black" d="M471.33,-557.468C517.55,-552.787 608.785,-541.709 636,-525 645.717,-519.034 653.836,-509.599 660.042,-500.524"/>
<polygon fill="black" stroke="black" points="663.008,-502.381 665.395,-492.059 657.092,-498.64 663.008,-502.381"/>
<text text-anchor="middle" x="687.5" y="-513.8" font-family="Times New Roman,serif" font-size="14.00">imported by</text>
</g>
<!-- n17 -->
<g id="node17" class="node"><title>n17</title>
<g id="a_node17"><a xlink:href="file:./SOFTWARE.owl.svg" xlink:title="http://arcos.rack/SOFTWARE">
<polygon fill="none" stroke="black" points="793,-492 739,-492 739,-456 793,-456 793,-492"/>
<text text-anchor="middle" x="766" y="-470.3" font-family="Times New Roman,serif" font-size="14.00">sw</text>
</a>
</g>
</g>
<!-- n4&#45;&gt;n17 -->
<g id="edge17" class="edge"><title>n4&#45;&gt;n17</title>
<path fill="none" stroke="black" d="M471.002,-559.214C532.817,-557.011 682.616,-549.254 726,-525 736.147,-519.327 744.679,-509.945 751.222,-500.831"/>
<polygon fill="black" stroke="black" points="754.266,-502.574 756.874,-492.305 748.432,-498.706 754.266,-502.574"/>
<text text-anchor="middle" x="778.5" y="-513.8" font-family="Times New Roman,serif" font-size="14.00">imported by</text>
</g>
<!-- n5&#45;&gt;n8 -->
<g id="edge8" class="edge"><title>n5&#45;&gt;n8</title>
<path fill="none" stroke="black" d="M308.955,-401.758C303.315,-396.767 298.135,-390.799 295,-384 288.3,-369.471 288.932,-362.805 295,-348 302.146,-330.566 316.159,-315.206 329.53,-303.516"/>
<polygon fill="black" stroke="black" points="331.827,-306.158 337.271,-297.069 327.347,-300.778 331.827,-306.158"/>
<text text-anchor="middle" x="329.5" y="-362.3" font-family="Times New Roman,serif" font-size="14.00">imported by</text>
</g>
<!-- n6 -->
<g id="node6" class="node"><title>n6</title>
<g id="a_node6"><a xlink:href="file:./REQUIREMENTS.owl.svg" xlink:title="http://arcos.rack/REQUIREMENTS">
<polygon fill="none" stroke="black" points="479,-297 425,-297 425,-261 479,-261 479,-297"/>
<text text-anchor="middle" x="452" y="-275.3" font-family="Times New Roman,serif" font-size="14.00">Rs</text>
</a>
</g>
</g>
<!-- n6&#45;&gt;n7 -->
<g id="edge4" class="edge"><title>n6&#45;&gt;n7</title>
<path fill="none" stroke="black" d="M452,-260.799C452,-249.163 452,-233.548 452,-220.237"/>
<polygon fill="black" stroke="black" points="455.5,-220.175 452,-210.175 448.5,-220.175 455.5,-220.175"/>
<text text-anchor="middle" x="486.5" y="-231.8" font-family="Times New Roman,serif" font-size="14.00">imported by</text>
</g>
<!-- n8&#45;&gt;n7 -->
<g id="edge6" class="edge"><title>n8&#45;&gt;n7</title>
<path fill="none" stroke="black" d="M364.448,-260.543C366.699,-250.063 370.968,-237.053 379,-228 387.759,-218.128 399.914,-210.789 411.794,-205.454"/>
<polygon fill="black" stroke="black" points="413.273,-208.63 421.194,-201.594 410.614,-202.155 413.273,-208.63"/>
<text text-anchor="middle" x="413.5" y="-231.8" font-family="Times New Roman,serif" font-size="14.00">imported by</text>
</g>
<!-- n8&#45;&gt;n19 -->
<g id="edge22" class="edge"><title>n8&#45;&gt;n19</title>
<path fill="none" stroke="black" d="M334.706,-264.218C323.156,-258.095 309.695,-250.569 298,-243 285.375,-234.83 272.048,-224.988 260.7,-216.205"/>
<polygon fill="black" stroke="black" points="262.855,-213.447 252.825,-210.035 258.538,-218.957 262.855,-213.447"/>
<text text-anchor="middle" x="332.5" y="-231.8" font-family="Times New Roman,serif" font-size="14.00">imported by</text>
</g>
<!-- n9 -->
<g id="node9" class="node"><title>n9</title>
<g id="a_node9"><a xlink:href="file:./properties.owl.svg" xlink:title="http://arcos.rack/properties">
<polygon fill="none" stroke="black" points="471,-666 417,-666 417,-630 471,-630 471,-666"/>
<text text-anchor="middle" x="444" y="-644.3" font-family="Times New Roman,serif" font-size="14.00">P</text>
</a>
</g>
</g>
<!-- n9&#45;&gt;n4 -->
<g id="edge9" class="edge"><title>n9&#45;&gt;n4</title>
<path fill="none" stroke="black" d="M444,-629.799C444,-618.163 444,-602.548 444,-589.237"/>
<polygon fill="black" stroke="black" points="447.5,-589.175 444,-579.175 440.5,-589.175 447.5,-589.175"/>
<text text-anchor="middle" x="478.5" y="-600.8" font-family="Times New Roman,serif" font-size="14.00">imported by</text>
</g>
<!-- n11 -->
<g id="node11" class="node"><title>n11</title>
<g id="a_node11"><a xlink:href="file:./SadlListModel.owl.svg" xlink:title="http://sadl.org/sadllistmodel">
<polygon fill="none" stroke="black" points="578.5,-666 489.5,-666 489.5,-630 578.5,-630 578.5,-666"/>
<text text-anchor="middle" x="534" y="-644.3" font-family="Times New Roman,serif" font-size="14.00">sadllistmodel</text>
</a>
</g>
</g>
<!-- n21 -->
<g id="node21" class="node"><title>n21</title>
<g id="a_node21"><a xlink:href="file:./CounterApplicationTesting.owl.svg" xlink:title="http://TurnstileSystem/CounterApplicationTesting">
<polygon fill="none" stroke="black" points="176.5,-123 103.5,-123 103.5,-87 176.5,-87 176.5,-123"/>
<text text-anchor="middle" x="140" y="-101.3" font-family="Times New Roman,serif" font-size="14.00">cntrapptst</text>
</a>
</g>
</g>
<!-- n13&#45;&gt;n21 -->
<g id="edge23" class="edge"><title>n13&#45;&gt;n21</title>
<path fill="none" stroke="black" d="M22.572,-401.974C13.1328,-383.305 0,-352.177 0,-323.5 0,-323.5 0,-323.5 0,-191 0,-146.343 52.69,-124.488 93.4215,-114.265"/>
<polygon fill="black" stroke="black" points="94.2803,-117.659 103.217,-111.967 92.6816,-110.844 94.2803,-117.659"/>
<text text-anchor="middle" x="34.5" y="-275.3" font-family="Times New Roman,serif" font-size="14.00">imported by</text>
</g>
<!-- n14&#45;&gt;n3 -->
<g id="edge14" class="edge"><title>n14&#45;&gt;n3</title>
<path fill="none" stroke="black" d="M208.4,-455.713C213.526,-436.99 222.393,-408.869 231,-402 275.902,-366.165 303.578,-399.123 359,-384 360.44,-383.607 361.897,-383.176 363.361,-382.715"/>
<polygon fill="black" stroke="black" points="364.72,-385.947 372.99,-379.325 362.395,-379.345 364.72,-385.947"/>
<text text-anchor="middle" x="265.5" y="-416.3" font-family="Times New Roman,serif" font-size="14.00">imported by</text>
</g>
<!-- n14&#45;&gt;n19 -->
<g id="edge20" class="edge"><title>n14&#45;&gt;n19</title>
<path fill="none" stroke="black" d="M205.709,-455.906C210.405,-408.946 223.535,-277.654 229.266,-220.343"/>
<polygon fill="black" stroke="black" points="232.765,-220.524 230.277,-210.226 225.8,-219.828 232.765,-220.524"/>
<text text-anchor="middle" x="254.5" y="-318.8" font-family="Times New Roman,serif" font-size="14.00">imported by</text>
</g>
<!-- n14&#45;&gt;n23 -->
<g id="edge27" class="edge"><title>n14&#45;&gt;n23</title>
<path fill="none" stroke="black" d="M176.948,-459.031C147.636,-441.734 105,-409.304 105,-367 105,-367 105,-367 105,-191 105,-162.262 122.868,-158.052 146,-141 149.829,-138.177 168.416,-130.515 187.334,-123.076"/>
<polygon fill="black" stroke="black" points="188.839,-126.246 196.882,-119.35 186.294,-119.725 188.839,-126.246"/>
<text text-anchor="middle" x="139.5" y="-275.3" font-family="Times New Roman,serif" font-size="14.00">imported by</text>
</g>
<!-- n15 -->
<g id="node15" class="node"><title>n15</title>
<g id="a_node15"><a xlink:href="file:./SadlImplicitModel.owl.svg" xlink:title="http://sadl.org/sadlimplicitmodel">
<polygon fill="none" stroke="black" points="711,-666 597,-666 597,-630 711,-630 711,-666"/>
<text text-anchor="middle" x="654" y="-644.3" font-family="Times New Roman,serif" font-size="14.00">sadlimplicitmodel</text>
</a>
</g>
</g>
<!-- n18 -->
<g id="node18" class="node"><title>n18</title>
<g id="a_node18"><a xlink:href="file:./Sample2.owl.svg" xlink:title="http://TurnstileSystem/Sample2">
<polygon fill="none" stroke="black" points="793,-384 739,-384 739,-348 793,-348 793,-384"/>
<text text-anchor="middle" x="766" y="-362.3" font-family="Times New Roman,serif" font-size="14.00">smpl2</text>
</a>
</g>
</g>
<!-- n17&#45;&gt;n18 -->
<g id="edge19" class="edge"><title>n17&#45;&gt;n18</title>
<path fill="none" stroke="black" d="M766,-455.969C766,-439.378 766,-413.883 766,-394.431"/>
<polygon fill="black" stroke="black" points="769.5,-394.341 766,-384.341 762.5,-394.341 769.5,-394.341"/>
<text text-anchor="middle" x="800.5" y="-416.3" font-family="Times New Roman,serif" font-size="14.00">imported by</text>
</g>
<!-- n19&#45;&gt;n21 -->
<g id="edge24" class="edge"><title>n19&#45;&gt;n21</title>
<path fill="none" stroke="black" d="M196.193,-180.173C183.064,-174.704 168.988,-166.864 159,-156 153.012,-149.488 148.85,-140.898 145.984,-132.679"/>
<polygon fill="black" stroke="black" points="149.309,-131.583 143.094,-123.002 142.602,-133.586 149.309,-131.583"/>
<text text-anchor="middle" x="193.5" y="-144.8" font-family="Times New Roman,serif" font-size="14.00">imported by</text>
</g>
<!-- n19&#45;&gt;n23 -->
<g id="edge28" class="edge"><title>n19&#45;&gt;n23</title>
<path fill="none" stroke="black" d="M232,-173.799C232,-162.163 232,-146.548 232,-133.237"/>
<polygon fill="black" stroke="black" points="235.5,-133.175 232,-123.175 228.5,-133.175 235.5,-133.175"/>
<text text-anchor="middle" x="266.5" y="-144.8" font-family="Times New Roman,serif" font-size="14.00">imported by</text>
</g>
<!-- n20 -->
<g id="node20" class="node"><title>n20</title>
<g id="a_node20"><a xlink:href="file:./SadlBuiltinFunctions.owl.svg" xlink:title="http://sadl.org/builtinfunctions">
<polygon fill="none" stroke="black" points="831,-666 729,-666 729,-630 831,-630 831,-666"/>
<text text-anchor="middle" x="780" y="-644.3" font-family="Times New Roman,serif" font-size="14.00">builtinfunctions</text>
</a>
</g>
</g>
<!-- n22 -->
<g id="node22" class="node"><title>n22</title>
<g id="a_node22"><a xlink:href="file:./GenerateCSV.owl.svg" xlink:title="http://TurnstileSystem/GenerateCSV">
<polygon fill="none" stroke="black" points="214,-36 158,-36 158,-0 214,-0 214,-36"/>
<text text-anchor="middle" x="186" y="-14.3" font-family="Times New Roman,serif" font-size="14.00">gencsv</text>
</a>
</g>
</g>
<!-- n21&#45;&gt;n22 -->
<g id="edge25" class="edge"><title>n21&#45;&gt;n22</title>
<path fill="none" stroke="black" d="M136.811,-86.9182C135.761,-76.8252 135.94,-64.0892 141,-54 143.325,-49.3636 146.584,-45.1587 150.298,-41.403"/>
<polygon fill="black" stroke="black" points="152.676,-43.9722 157.871,-34.7387 148.052,-38.7169 152.676,-43.9722"/>
<text text-anchor="middle" x="175.5" y="-57.8" font-family="Times New Roman,serif" font-size="14.00">imported by</text>
</g>
<!-- n23&#45;&gt;n22 -->
<g id="edge26" class="edge"><title>n23&#45;&gt;n22</title>
<path fill="none" stroke="black" d="M225.427,-86.9556C221.403,-77.1074 215.903,-64.6074 210,-54 208.264,-50.8795 206.324,-47.6861 204.321,-44.5591"/>
<polygon fill="black" stroke="black" points="207.092,-42.4052 198.623,-36.0383 201.273,-46.2965 207.092,-42.4052"/>
<text text-anchor="middle" x="252.5" y="-57.8" font-family="Times New Roman,serif" font-size="14.00">imported by</text>
</g>
</g>
</svg>
